<?xml version="1.0" encoding="UTF-8" standalone="no"?>
<!-- Created with Inkscape (http://www.inkscape.org/) -->

<svg
   width="24.0px"
   height="24.0px"
   viewBox="0 0 24.0 24.0"
   version="1.1"
   id="SVGRoot"
   sodipodi:docname="ada-combined-optimised.svg"
   inkscape:version="1.1 (c68e22c387, 2021-05-23)"
   xmlns:inkscape="http://www.inkscape.org/namespaces/inkscape"
   xmlns:sodipodi="http://sodipodi.sourceforge.net/DTD/sodipodi-0.dtd"
   xmlns="http://www.w3.org/2000/svg"
   xmlns:svg="http://www.w3.org/2000/svg">
  <sodipodi:namedview
     id="namedview839"
     pagecolor="#ffffff"
     bordercolor="#666666"
     borderopacity="1.0"
     inkscape:pageshadow="2"
     inkscape:pageopacity="0.0"
     inkscape:pagecheckerboard="0"
     inkscape:document-units="px"
     showgrid="true"
     inkscape:zoom="40.541667"
     inkscape:cx="12"
     inkscape:cy="12"
     inkscape:window-width="2230"
     inkscape:window-height="1223"
     inkscape:window-x="713"
     inkscape:window-y="81"
     inkscape:window-maximized="0"
     inkscape:current-layer="layer1"
     inkscape:snap-global="false">
    <inkscape:grid
       type="xygrid"
       id="grid902" />
  </sodipodi:namedview>
  <defs
     id="defs834" />
  <g
     inkscape:label="Layer 1"
     inkscape:groupmode="layer"
     id="layer1">
    <path
       id="path62"
       style="fill:#008080;stroke-width:0.0625379"
       class="st0"
       d="m 15.796048,18.45078 c -0.387735,0.200121 -0.544079,0.675409 -0.343958,1.063144 0.200121,0.387735 0.675409,0.544079 1.063143,0.343958 0.387735,-0.193867 0.54408,-0.669155 0.350213,-1.05689 -0.200122,-0.387734 -0.675409,-0.550333 -1.069398,-0.350212 0,0 0,0 0,0 z M 12,17.450175 c -0.51281,-0.03127 -0.950575,0.362719 -0.975591,0.87553 -0.03127,0.51281 0.36272,0.950575 0.87553,0.97559 0.512811,0.02501 0.950576,-0.362719 0.975591,-0.87553 C 12.9068,17.919208 12.51281,17.47519 12,17.450175 c 0,0 0,0 0,0 z m -0.0063,4.083722 c -0.356466,-0.01876 -0.662901,0.256405 -0.687916,0.612871 -0.02501,0.356466 0.256405,0.662901 0.612871,0.687916 0.356466,0.01876 0.662901,-0.250151 0.687916,-0.606617 0.01876,-0.36272 -0.256405,-0.669155 -0.612871,-0.69417 0,0 0,0 0,0 z M 8.3102663,18.513318 c -0.3627196,-0.237644 -0.8567687,-0.137583 -1.0944126,0.225136 -0.2376439,0.36272 -0.1375833,0.856769 0.2251363,1.094413 0.3627196,0.237644 0.8567687,0.137583 1.0944126,-0.225136 0,0 0,0 0,0 0.2438976,-0.36272 0.143837,-0.856769 -0.2251363,-1.094413 z m 3.1581617,-2.420215 c 0.475288,-0.731693 0.275167,-1.707284 -0.456526,-2.188825 -0.731693,-0.475288 -1.7072838,-0.275167 -2.1888253,0.456526 -0.4815415,0.731693 -0.2751666,1.707284 0.4565264,2.188825 0.2564052,0.168853 0.5565869,0.256406 0.8630229,0.256406 0.537825,0.0063 1.031874,-0.262659 1.325802,-0.712932 z m 5.928589,5.15312 c -0.250151,0.125075 -0.350212,0.437765 -0.225136,0.687916 0.125076,0.250152 0.437765,0.350212 0.687916,0.225136 0.250152,-0.125075 0.350212,-0.431511 0.225137,-0.681662 -0.125076,-0.256405 -0.431511,-0.36272 -0.687917,-0.23139 0.0063,0 0,0 0,0 z M 6.6905357,21.296253 C 6.4528918,21.139908 6.1402025,21.2087 5.9838579,21.44009 c -0.1563447,0.237644 -0.087553,0.550333 0.143837,0.706678 0.2376439,0.156344 0.5503332,0.08755 0.7066779,-0.143837 0,0 0,0 0,0 0.1625984,-0.23139 0.093807,-0.550333 -0.1438371,-0.706678 z M 21.186812,16.530868 c -0.300182,-0.193867 -0.700424,-0.112568 -0.900546,0.187614 -0.193867,0.300181 -0.112568,0.700424 0.187614,0.900545 0.300182,0.193867 0.700424,0.112568 0.900545,-0.187614 0.200121,-0.300182 0.112568,-0.706678 -0.187613,-0.900545 0,0 0,0 0,0 z m 2.057495,-5.065567 c -0.28142,-0.01876 -0.525318,0.200121 -0.537825,0.481542 -0.01251,0.28142 0.200121,0.525318 0.481541,0.537825 0.281421,0.01876 0.519064,-0.200121 0.537826,-0.481541 0.01251,-0.28142 -0.200121,-0.519064 -0.481542,-0.537826 z m -2.182571,0.562841 c 0.02501,-0.437765 -0.306436,-0.806738 -0.744201,-0.831753 -0.437765,-0.02502 -0.806738,0.306435 -0.831753,0.7442 -0.02501,0.437765 0.306435,0.806738 0.7442,0.831754 0,0 0,0 0,0 0.431512,0.02501 0.806739,-0.31269 0.831754,-0.744201 z m -3.026833,2.370185 c -0.431511,-0.28142 -1.006859,-0.162598 -1.282026,0.268913 -0.28142,0.431511 -0.162598,1.006859 0.268913,1.282026 0.431511,0.28142 1.00686,0.162598 1.282026,-0.268913 0.281421,-0.425257 0.162599,-1.000606 -0.268913,-1.282026 0,0 0,0 0,0 z m -2.757919,0.112568 c -0.393989,-0.781723 -1.344564,-1.094412 -2.120034,-0.700424 -0.781723,0.393989 -1.094412,1.344564 -0.700424,2.120034 0.393989,0.781723 1.344564,1.094412 2.120034,0.700424 0,0 0,0 0,0 0.775469,-0.387735 1.094412,-1.325803 0.706678,-2.107526 0,-0.0063 0,-0.0063 -0.0063,-0.01251 z M 12.531572,7.9068971 c -0.475288,0.731693 -0.275167,1.7072836 0.456526,2.1825709 0.731693,0.475288 1.707284,0.275167 2.182572,-0.456526 0.475287,-0.7316929 0.275166,-1.7072835 -0.456527,-2.1825713 -0.256405,-0.1688522 -0.556587,-0.2564052 -0.863022,-0.2564052 -0.531572,0 -1.025621,0.2689128 -1.319549,0.7129316 z M 6.9031644,16.030565 c 0.4565264,-0.23139 0.64414,-0.787977 0.4127499,-1.244503 -0.2313901,-0.456527 -0.7879771,-0.64414 -1.2445034,-0.41275 -0.4565264,0.23139 -0.64414,0.787977 -0.4127499,1.244503 0.2313901,0.456527 0.787977,0.64414 1.2445034,0.41275 z M 11.931208,6.5498255 c 0.512811,0.031269 0.950576,-0.3627195 0.975591,-0.87553 0.03127,-0.5128104 -0.36272,-0.9505755 -0.87553,-0.9755906 -0.512811,-0.031269 -0.950576,0.3627196 -0.975591,0.87553 -0.02501,0.5128105 0.36272,0.9505755 0.87553,0.9755906 0,0 0,0 0,0 z m 0.0063,-4.0837222 c 0.356466,0.018761 0.662901,-0.2564052 0.687917,-0.612871 0.02501,-0.3564658 -0.256406,-0.6629014 -0.612871,-0.6879165 -0.356466,-0.018761 -0.662902,0.2501514 -0.687917,0.6066172 -0.01876,0.3627196 0.256405,0.6691551 0.612871,0.6941703 0,0 0,0 0,0 z m 5.159374,5.5033317 c -0.456527,0.2313901 -0.64414,0.787977 -0.41275,1.2445034 0.23139,0.4565264 0.787977,0.6441399 1.244503,0.4127499 0.456527,-0.2313901 0.64414,-0.7879771 0.41275,-1.2445035 C 18.109949,7.9256585 17.553362,7.7442987 17.096836,7.969435 Z m 4.002423,-0.5003029 c 0.318943,-0.1625984 0.444018,-0.556587 0.28142,-0.8755301 -0.162598,-0.318943 -0.556587,-0.4440188 -0.87553,-0.2814203 -0.318943,0.1625984 -0.444019,0.5503331 -0.287674,0.8692762 0.168852,0.3189431 0.556587,0.4502726 0.881784,0.2876742 0,0 0,0 0,0 z M 8.7230161,9.489105 c 0.2689128,0.531572 0.8129922,0.869276 1.4133559,0.869276 0.869276,0 1.575954,-0.7066776 1.575954,-1.5822076 0,-0.2438977 -0.05628,-0.4877953 -0.168852,-0.7129316 C 11.149485,7.2815185 10.19891,6.9688292 9.4234402,7.3628177 8.6417169,7.76306 8.3290276,8.7136355 8.7230161,9.489105 Z m 7.0855399,0.92556 c -0.869277,-0.05003 -1.619731,0.619125 -1.663507,1.488401 -0.05003,0.869277 0.619124,1.619731 1.488401,1.663507 0.03127,0 0.06254,0 0.08755,0 0.869276,0 1.575954,-0.706677 1.575954,-1.582207 0.0063,-0.831754 -0.650394,-1.525924 -1.488401,-1.569701 z m 1.494655,-7.7109178 c 0.237643,0.1563446 0.550333,0.087553 0.706677,-0.1500909 0.156345,-0.2376439 0.08755,-0.5503332 -0.150091,-0.7066778 -0.237643,-0.1563447 -0.550333,-0.087553 -0.706677,0.1438371 -0.150091,0.2376438 -0.0813,0.5565869 0.150091,0.7129316 0,0 0,0 0,0 z M 15.689734,5.4866819 C 16.052453,5.7243258 16.546502,5.6242652 16.784146,5.2615456 17.02179,4.898826 16.92173,4.4047769 16.55901,4.1671331 16.19629,3.9294892 15.702241,4.0295498 15.464597,4.3922694 c 0,0 0,0 0,0 -0.243897,0.3689733 -0.143837,0.8567687 0.225137,1.0944125 0,0 0,0 0,0 z M 5.9650965,9.6016731 C 6.3966077,9.8830935 6.9719561,9.7642716 7.2471226,9.3327603 7.528543,8.9012491 7.4097211,8.3259008 6.9782098,8.0507342 6.5466986,7.7693138 5.9713503,7.8881357 5.6961837,8.319647 5.4147633,8.7449044 5.5335853,9.3202527 5.9650965,9.6016731 c 0,0 0,0 0,0 z M 2.9007414,16.530868 c -0.3189431,0.162598 -0.4502726,0.550333 -0.2876742,0.87553 0.1625985,0.318943 0.5503332,0.450273 0.8755301,0.287674 0.318943,-0.162598 0.4502725,-0.550333 0.2876741,-0.87553 0,0 0,0 0,0 -0.1625984,-0.318943 -0.5565869,-0.450272 -0.87553,-0.287674 0,0 0,0 0,0 z m 0.8692762,-5.296957 c -0.437765,-0.02502 -0.8067384,0.306436 -0.8317535,0.744201 -0.025015,0.437765 0.3064355,0.806738 0.7442005,0.831753 0.437765,0.02501 0.8067384,-0.306435 0.8317536,-0.7442 0,0 0,0 0,0 0.025015,-0.431511 -0.3064356,-0.806739 -0.7442006,-0.831754 z M 2.8131884,7.4691321 C 3.1133701,7.6629995 3.5136124,7.5817002 3.7137336,7.2815185 3.9076009,6.9813368 3.8263017,6.5810945 3.52612,6.3809733 3.2259382,6.187106 2.8256959,6.2684052 2.6255748,6.5685869 c 0,0 0,0 0,0 C 2.4254536,6.8687686 2.5130066,7.2752647 2.8131884,7.4691321 Z M 8.2039519,5.5492198 C 8.5916866,5.3553524 8.7480313,4.8800647 8.5541639,4.49233 8.3602965,4.1045952 7.8850088,3.9482506 7.4972741,4.1421179 7.1095393,4.3359853 6.9531947,4.811273 7.1470621,5.1990078 7.3409294,5.5867425 7.8162172,5.7430872 8.2039519,5.5492198 Z M 6.6029827,2.7537774 C 6.8531341,2.6287017 6.9531947,2.3160124 6.828119,2.065861 6.7030433,1.8157095 6.390354,1.715649 6.1402025,1.8407247 5.8900511,1.9658004 5.7899905,2.2722359 5.9150662,2.5223874 c 0.1250757,0.2564052 0.4315113,0.3627195 0.6879165,0.23139 -0.00625,0 0,0 0,0 z M 0.81197685,11.515332 c -0.28142037,-0.01876 -0.52531803,0.200121 -0.5378256,0.481541 -0.0125076,0.281421 0.20012115,0.525318 0.48154152,0.537826 0.28142033,0.01876 0.51906423,-0.200121 0.53782563,-0.481542 0.018761,-0.28142 -0.2001212,-0.519064 -0.48154155,-0.537825 0,0 0,0 0,0 z m 5.89106645,0.406496 c -0.05003,0.869276 0.6191248,1.613477 1.488401,1.663507 0.031269,0 0.062538,0 0.093807,0 0.8755301,0 1.5822079,-0.706678 1.5759541,-1.582208 0,-0.87553 -0.7066778,-1.582208 -1.5822079,-1.575954 -0.8380073,0 -1.5321775,0.656647 -1.5759542,1.494655 z" />
  </g>
</svg>
