<?xml version="1.0" encoding="UTF-8"?>
<svg id="a" width="24px" height="24px" version="1.1" viewBox="0 0 24 24" xmlns="http://www.w3.org/2000/svg">
 <path class="st0" d="m15.796 18.451c-.38774.20012-.54408.67541-.34396 1.0631s.67541.54408 1.0631.34396c.38774-.19387.54408-.66916.35021-1.0569-.20012-.38773-.67541-.55033-1.0694-.35021zm-3.796-1.0006c-.51281-.03127-.95058.36272-.97559.87553-.03127.51281.36272.95058.87553.97559.51281.02501.95058-.36272.97559-.87553.03127-.50656-.36272-.95058-.87553-.97559zm-.0063 4.0837c-.35647-.01876-.6629.2564-.68792.61287-.02501.35647.2564.6629.61287.68792.35647.01876.6629-.25015.68792-.60662.01876-.36272-.2564-.66916-.61287-.69417zm-3.6834-3.0206c-.36272-.23764-.85677-.13758-1.0944.22514-.23764.36272-.13758.85677.22514 1.0944s.85677.13758 1.0944-.22514c.2439-.36272.14384-.85677-.22514-1.0944zm3.1582-2.4202c.47529-.73169.27517-1.7073-.45653-2.1888-.73169-.47529-1.7073-.27517-2.1888.45653s-.27517 1.7073.45653 2.1888c.25641.16885.55659.25641.86302.25641.53782.0063 1.0319-.26266 1.3258-.71293zm5.9286 5.1531c-.25015.12508-.35021.43776-.22514.68792.12508.25015.43776.35021.68792.22514.25015-.12508.35021-.43151.22514-.68166-.12508-.2564-.43151-.36272-.68792-.23139.0063 0 0 0 0 0zm-10.706.05003c-.23764-.15634-.55033-.087553-.70668.14384-.15634.23764-.087553.55033.14384.70668.23764.15634.55033.08755.70668-.14384.1626-.23139.093807-.55033-.14384-.70668zm14.496-4.7654c-.30018-.19387-.70042-.11257-.90055.18761-.19387.30018-.11257.70042.18761.90054.30018.19387.70042.11257.90054-.18761s.11257-.70668-.18761-.90054zm2.0575-5.0656c-.28142-.01876-.52532.20012-.53782.48154-.01251.28142.20012.52532.48154.53782.28142.01876.51906-.20012.53783-.48154.01251-.28142-.20012-.51906-.48154-.53783zm-2.1826.56284c.02501-.43776-.30644-.80674-.7442-.83175-.43776-.02502-.80674.30644-.83175.7442-.02501.43776.30644.80674.7442.83175.43151.02501.80674-.31269.83175-.7442zm-3.0268 2.3702c-.43151-.28142-1.0069-.1626-1.282.26891-.28142.43151-.1626 1.0069.26891 1.282.43151.28142 1.0069.1626 1.282-.26891.28142-.42526.1626-1.0006-.26891-1.282zm-2.7579.11257c-.39399-.78172-1.3446-1.0944-2.12-.70042-.78172.39399-1.0944 1.3446-.70042 2.12.39399.78172 1.3446 1.0944 2.12.70042.77547-.38774 1.0944-1.3258.70668-2.1075 0-.0063 0-.0063-.0063-.01251zm-2.7454-6.604c-.47529.73169-.27517 1.7073.45653 2.1826.73169.47529 1.7073.27517 2.1826-.45653.47529-.73169.27517-1.7073-.45653-2.1826-.2564-.16885-.55659-.25641-.86302-.25641-.53157 0-1.0256.26891-1.3195.71293zm-5.6284 8.1237c.45653-.23139.64414-.78798.41275-1.2445-.23139-.45653-.78798-.64414-1.2445-.41275-.45653.23139-.64414.78798-.41275 1.2445.23139.45653.78798.64414 1.2445.41275zm5.028-9.4807c.51281.031269.95058-.36272.97559-.87553.03127-.51281-.36272-.95058-.87553-.97559-.51281-.031269-.95058.36272-.97559.87553-.02501.51281.36272.95058.87553.97559zm.0063-4.0837c.35647.018761.6629-.25641.68792-.61287.02501-.35647-.25641-.6629-.61287-.68792-.35647-.018761-.6629.25015-.68792.60662-.01876.36272.2564.66916.61287.69417zm5.1594 5.5033c-.45653.23139-.64414.78798-.41275 1.2445s.78798.64414 1.2445.41275c.45653-.23139.64414-.78798.41275-1.2445-.23144-.45653-.78802-.63789-1.2445-.41275zm4.0024-.5003c.31894-.1626.44402-.55659.28142-.87553-.1626-.31894-.55659-.44402-.87553-.28142-.31894.1626-.44402.55033-.28767.86928.16885.31894.55659.45027.88178.28767zm-12.376 2.02c.26891.53157.81299.86928 1.4134.86928.86928 0 1.576-.70668 1.576-1.5822 0-.2439-.05628-.4878-.16885-.71293-.39399-.78172-1.3446-1.0944-2.12-.70042-.78172.40024-1.0944 1.3508-.70042 2.1263zm7.0855.92556c-.86928-.05003-1.6197.61912-1.6635 1.4884-.05003.86928.61912 1.6197 1.4884 1.6635h.08755c.86928 0 1.576-.70668 1.576-1.5822.0063-.83175-.65039-1.5259-1.4884-1.5697zm1.4947-7.7109c.23764.15634.55033.087553.70668-.15009.15634-.23764.08755-.55033-.15009-.70668-.23764-.15634-.55033-.087553-.70668.14384-.15009.23764-.0813.55659.15009.71293zm-1.6135 2.7829c.36272.23764.85677.13758 1.0944-.22514s.13758-.85677-.22514-1.0944c-.36272-.23764-.85677-.13758-1.0944.22514-.2439.36897-.14384.85677.22514 1.0944zm-9.7246 4.115c.43151.28142 1.0069.1626 1.282-.26891.28142-.43151.1626-1.0069-.26891-1.282-.43151-.28142-1.0069-.1626-1.282.26891-.28142.42526-.1626 1.0006.26891 1.282zm-3.0644 6.9292c-.31894.1626-.45027.55033-.28767.87553.1626.31894.55033.45027.87553.28767.31894-.1626.45027-.55033.28767-.87553-.1626-.31894-.55659-.45027-.87553-.28767zm.86928-5.297c-.43776-.02502-.80674.30644-.83175.7442-.025015.43776.30644.80674.7442.83175.43776.02501.80674-.30644.83175-.7442.025015-.43151-.30644-.80674-.7442-.83175zm-.95683-3.7648c.30018.19387.70042.11257.90055-.18761.19387-.30018.11257-.70042-.18761-.90055-.30018-.19387-.70042-.11257-.90055.18761-.20012.30018-.11257.70668.18761.90055zm5.3908-1.9199c.38773-.19387.54408-.66916.35021-1.0569-.19387-.38773-.66916-.54408-1.0569-.35021-.38773.19387-.54408.66916-.35021 1.0569.19387.38773.66916.54408 1.0569.35021zm-1.601-2.7954c.25015-.12508.35021-.43776.22514-.68792-.12508-.25015-.43776-.35021-.68792-.22514-.25015.12508-.35021.43151-.22514.68166.12508.25641.43151.36272.68792.23139-.00625 0 0 0 0 0zm-5.791 8.7616c-.28142-.01876-.52532.20012-.53783.48154-.012508.28142.20012.52532.48154.53783.28142.01876.51906-.20012.53783-.48154.018761-.28142-.20012-.51906-.48154-.53782zm5.8911.4065c-.05003.86928.61912 1.6135 1.4884 1.6635h.093807c.87553 0 1.5822-.70668 1.576-1.5822 0-.87553-.70668-1.5822-1.5822-1.576-.83801 0-1.5322.65665-1.576 1.4947z" fill="#008080" stroke-width=".062538"/>
</svg>
