<?xml version="1.0" encoding="UTF-8"?>
<svg id="a" width="24px" height="24px" version="1.1" viewBox="0 0 24 24" xmlns="http://www.w3.org/2000/svg">
 <path d="m9.8184 1.9196c-5.5999.39237-9.8184 4.6854-9.8184 10.082 0 6.2294 5.5536 11.376 12.392 11.376 4.8387-.04004 9.2782-2.6911 11.608-6.9319-3.0654.68917-6.6858-.62204-6.4979-3.3832-11.727-3.5033-15.443-7.9064-7.6838-11.143m-.25979-1.2965c-.43586.002126-.80899.024187-1.1055.060547l1.2539 1.2676c-10.482 3.5984.54841 9.7293 7.7949 11.111.35801-1.6647 1.3999-2.041 2.0488-2.041l1.0566-6.2148c.044343-.27118-.358-.7503-.40234-1.0215-4.0893-2.5638-8.2928-3.1736-10.646-3.1621zm5.4063 2.877c1.564-.046715 3.1107.33262 4.4746 1.0996-.41531-.13033-.84083-.22773-1.2715-.29102-.20218.21431-.43714.39486-.69727.5332-1.8393-.39381-2.5059-1.3418-2.5059-1.3418zm8.6145 5.6782c.09845-2.063-1.3425-3.4324-2.9715-4.3722l-1.0561 6.2159c.44123-.06131.88728.07267 1.2217.36696.39241.38502.4273 1.0054.08055 1.432 1.0203-.17005 2.609-1.1501 2.7253-3.6427z" fill="#008080" fill-rule="evenodd" stroke-width=".44751"/>
</svg>
