<?xml version="1.0" encoding="UTF-8"?>
<svg id="a" width="24px" height="24px" version="1.1" viewBox="0 0 24 24" xmlns="http://www.w3.org/2000/svg">
 <path d="m3.0449 23.6 20.336.03856a.56755.56755 119.69 00.4889-.85762l-13.162-22.135a.58569.58569 179.62 00-1.0108.006706l-9.5679 16.588a.58227.58227 60.188 00.50032.87319l3.3427.023267a.86618.86618 150.4 00.75306-.42774l5.0665-8.633a.57964.57964.30944 011.003.00542l5.3095 9.2752a.58263.58263 119.99 01-.50319.87207l-10.511.04425a.87879.87879 150.12 00-.75363.433l-1.7838 3.0304a.57301.57301 60.295 00.49273.86368z" fill="#008080" stroke="#008080" stroke-linejoin="round" stroke-width=".12191"/>
</svg>
