<?xml version="1.0" encoding="UTF-8"?>
<svg id="a" width="24px" height="24px" version="1.1" viewBox="0 0 24 24" xmlns="http://www.w3.org/2000/svg">
 <path class="cls-1" d="m14.751 11.999h.0012l-2.7518-2.7519-2.034 2.0334-.23366.23376-.48192.48202-.00384.0037.00384.0039 2.7495 2.7499 2.7519-2.7519.0013-.0015-.0025-.0013m-7.4117-1.9136 4.661-4.661 4.6632 4.663 2.712-2.712-7.3752-7.375-7.3728 7.3728 2.7119 2.712m-7.3391 1.9152 2.7121-2.7125 2.7119 2.7119-2.7121 2.7121zm7.339 1.9153 4.661 4.6607 4.6631-4.6629 2.7134 2.7106-.0013.0014-7.3752 7.375-7.3766-7.3766 2.7159-2.7084m11.237-1.9139 2.7121-2.7121 2.7119 2.7119-2.712 2.7121z" fill="#008080" stroke-width=".0096"/>
</svg>
