<?xml version="1.0" encoding="UTF-8"?>
<svg id="a" width="24px" height="24px" version="1.1" viewBox="0 0 24 24" xmlns="http://www.w3.org/2000/svg">
 <path class="st1" d="m12.671 20.957c-.8192-.17055-1.6202.35546-1.7907 1.1737-.0018.0076-.0029.01537-.0049.02304-.17725.81346.33822 1.6173 1.1526 1.7946h.0029.04217c.79716.19259 1.5991-.298 1.7907-1.0942.0018-.0055.0029-.01238.0048-.01831v-.08334c.14085-.82209-.3842-1.6106-1.1976-1.7965zm-.55092-20.948c-5.0091.020095-9.0648 4.0759-9.0849 9.0849 0 1.0031.16192 1.9996.47906 2.951.23666.64769.93896.99644 1.5982.7962.63715-.24432.97537-.9409.77225-1.5924-.26923-.74161-.389-1.5282-.35355-2.3158.10923-3.6179 3.1302-6.4626 6.7481-6.3533 3.6179.10923 6.4626 3.1302 6.3533 6.7481-.10251 3.387-2.7699 6.1377-6.1531 6.3437 0 0-1.2753.07761-1.9095.15522-.23378.03353-.46565.07953-.69464.13796-.03258.03353-.08527.03353-.11881 0h-.000886c-.02298-.02969-.02298-.07186 0-.10157l.19737-1.0769 1.1977-5.3866c.14372-.6726-.28456-1.3347-.95717-1.4784-.6726-.14369-1.3347.28458-1.4784.95718 0 0-2.8485 13.185-2.8485 13.305-.16288.64099.2242 1.2925.86519 1.4554.00671.0029.014386.0038.021094.0048h.066111c.64003.16576 1.2935-.21941 1.4583-.85942.00297-.01067.00576-.02097.00765-.03258-.00178-.0201-.00178-.04022 0-.05941.035452-.15522.39475-1.9095.39475-1.9095.27211-1.3241 1.3395-2.3388 2.6751-2.5438.27498-.04217 1.4305-.11977 1.4305-.11977 4.9899-.49728 8.6318-4.9459 8.1335-9.9358-.45415-4.5512-4.2244-8.055-8.7985-8.1738z" fill="#008080" stroke-width=".0095813"/>
</svg>
