<?xml version="1.0" encoding="UTF-8" standalone="no"?>
<!-- Created with Inkscape (http://www.inkscape.org/) -->

<svg
   width="24.0px"
   height="24.0px"
   viewBox="0 0 24.0 24.0"
   version="1.1"
   id="SVGRoot"
   sodipodi:docname="dot.svg"
   inkscape:version="1.1 (c68e22c387, 2021-05-23)"
   xmlns:inkscape="http://www.inkscape.org/namespaces/inkscape"
   xmlns:sodipodi="http://sodipodi.sourceforge.net/DTD/sodipodi-0.dtd"
   xmlns="http://www.w3.org/2000/svg"
   xmlns:svg="http://www.w3.org/2000/svg">
  <sodipodi:namedview
     id="namedview839"
     pagecolor="#ffffff"
     bordercolor="#666666"
     borderopacity="1.0"
     inkscape:pageshadow="2"
     inkscape:pageopacity="0.0"
     inkscape:pagecheckerboard="0"
     inkscape:document-units="px"
     showgrid="true"
     inkscape:zoom="37.291667"
     inkscape:cx="12"
     inkscape:cy="12.254749"
     inkscape:window-width="2148"
     inkscape:window-height="1212"
     inkscape:window-x="760"
     inkscape:window-y="78"
     inkscape:window-maximized="0"
     inkscape:current-layer="layer1"
     inkscape:snap-global="false">
    <inkscape:grid
       type="xygrid"
       id="grid902" />
  </sodipodi:namedview>
  <defs
     id="defs834" />
  <g
     inkscape:label="Layer 1"
     inkscape:groupmode="layer"
     id="layer1">
    <path
       id="path8"
       style="fill:#008080;stroke-width:0.00958126"
       class="st1"
       d="m 12.671329,20.957217 c -0.8192,-0.170548 -1.620191,0.355456 -1.790737,1.173699 -0.0018,0.0076 -0.0029,0.01537 -0.0049,0.02304 -0.177252,0.813456 0.338219,1.617311 1.152626,1.794567 8.85e-4,0 0.0018,0 0.0029,0 h 0.04217 c 0.797161,0.192588 1.599113,-0.297995 1.790738,-1.094199 0.0018,-0.0055 0.0029,-0.01238 0.0048,-0.01831 v -0.08334 c 0.140853,-0.822086 -0.3842,-1.610637 -1.197646,-1.796489 z M 12.120406,0.00970789 C 7.1113246,0.02980326 3.0555797,4.0855822 3.0354583,9.0946492 c 0,1.0031498 0.1619231,1.9996218 0.4790629,2.9510418 0.236657,0.647691 0.9389615,0.996442 1.5981546,0.796203 C 5.749827,12.597577 6.0880455,11.90099 5.8849225,11.249488 5.6156918,10.50788 5.495926,9.7212783 5.5313742,8.9337021 5.6406023,5.3157953 8.6615729,2.4711383 12.279455,2.5803567 c 3.617883,0.109227 6.462556,3.1301877 6.353329,6.7480932 -0.102514,3.3869711 -2.769942,6.1377411 -6.15308,6.3437431 0,0 -1.275266,0.07761 -1.909546,0.155217 -0.233782,0.03353 -0.465651,0.07953 -0.6946408,0.13796 -0.03258,0.03353 -0.08527,0.03353 -0.118809,0 0,0 -8.86e-4,0 -8.86e-4,0 -0.02298,-0.02969 -0.02298,-0.07186 0,-0.101571 L 9.9531962,14.786878 11.150852,9.4002867 C 11.294572,8.7276892 10.866289,8.0656104 10.193684,7.9218853 9.5210822,7.7781908 8.8590175,8.206469 8.7152985,8.8790665 c 0,0 -2.8485098,13.1847755 -2.8485098,13.3045415 -0.1628803,0.640986 0.2242018,1.292489 0.8651876,1.455387 0.00671,0.0029 0.014386,0.0038 0.021094,0.0048 h 0.066111 c 0.6400286,0.165764 1.2934698,-0.219413 1.4582674,-0.859424 0.00297,-0.01067 0.00576,-0.02097 0.00765,-0.03258 -0.00178,-0.0201 -0.00178,-0.04022 0,-0.05941 0.035452,-0.155215 0.3947485,-1.909545 0.3947485,-1.909545 0.2721079,-1.324128 1.3394578,-2.338769 2.6750858,-2.543823 0.274982,-0.04217 1.430483,-0.119768 1.430483,-0.119768 4.98992,-0.497284 8.631754,-4.945868 8.13353,-9.9357912 C 20.464793,3.6322962 16.694568,0.12845458 12.120479,0.00963434 Z" />
  </g>
</svg>
