<?xml version="1.0" encoding="UTF-8"?>
<svg id="a" width="24px" height="24px" version="1.1" viewBox="0 0 24 24" xmlns="http://www.w3.org/2000/svg">
 <path class="st0" d="m12 0a12 12 0 00-12 12 12 12 0 0012 12 12 12 0 0012-12 12 12 0 00-12-12zm-2.6738 5.8398h.033203 7.5312.017578c.11848.016925.25457.033203.37305.033203.28773.033851.57425.05144.87891.11914.96474.18618 1.3372.72732 1.168 1.709-.05078.42313-.38872.778-.8457.8457-.2031.03385-.40692.050781-.62695.050781-2.6234.016925-5.2633.035156-7.8867.035156-.37236 0-.76046.033862-1.1328.10156-1.1678.18618-1.5586.6082-1.6602 1.793 0 .10155-.015625.20248-.015625.28711h.28711 10.799c.22003 0 .43882.06837.625.16992.57546.37236.52604.93168.49219 1.3379 0 .05078-.017578.11719-.017578.16797-.03385.47391-.32102.79689-.8457.89844-.18618.03385-.35614.033203-.52539.033203h-10.748-.066406v.050781.017578c.016925.35543.05014.69274.13477 1.0312.1354.52468.45644.84572.99805.99805.72779.2031 1.4721.23828 2.1152.23828 1.9972.016931 4.0295.015626 6.0098.015626h1.6914c.25388 0 .77933.001355 1.084.49219.2031.32158.25455.6934.16992 1.0488-.08463.35543-.30537.66018-.62695.86328-.08463.05078-.18556.10092-.28711.13477-.62623.2031-1.2709.23698-1.8125.25391-1.2017 0-2.4201.017578-3.6387.017578s-2.4194-.016283-3.6211-.033203c-.76164-.016926-1.5229-.10223-2.2676-.27148-1.8449-.38928-2.793-1.3713-3.0977-3.1992-.050776-.28773-.084637-.5749-.10156-.8457-.016925-.11848-.033856-.23764-.050781-.37305v-.033203-3.1816l.033203-.30469c.016926-.22003.051434-.42385.068359-.62695.23695-2.0818 1.2177-3.1485 3.2656-3.6055.54161-.11848 1.0671-.16797 1.5918-.21875l.50781-.050781z" fill="#008080" stroke-width=".16925"/>
</svg>
