<?xml version="1.0" encoding="UTF-8" standalone="no"?>
<!-- Created with Inkscape (http://www.inkscape.org/) -->

<svg
   width="24.0px"
   height="24.0px"
   viewBox="0 0 24.0 24.0"
   version="1.1"
   id="SVGRoot"
   sodipodi:docname="enj.svg"
   inkscape:version="1.1 (c68e22c387, 2021-05-23)"
   xmlns:inkscape="http://www.inkscape.org/namespaces/inkscape"
   xmlns:sodipodi="http://sodipodi.sourceforge.net/DTD/sodipodi-0.dtd"
   xmlns="http://www.w3.org/2000/svg"
   xmlns:svg="http://www.w3.org/2000/svg">
  <sodipodi:namedview
     id="namedview839"
     pagecolor="#ffffff"
     bordercolor="#666666"
     borderopacity="1.0"
     inkscape:pageshadow="2"
     inkscape:pageopacity="0.0"
     inkscape:pagecheckerboard="0"
     inkscape:document-units="px"
     showgrid="true"
     inkscape:zoom="37.291667"
     inkscape:cx="10.873743"
     inkscape:cy="12"
     inkscape:window-width="2148"
     inkscape:window-height="1145"
     inkscape:window-x="760"
     inkscape:window-y="78"
     inkscape:window-maximized="0"
     inkscape:current-layer="layer1">
    <inkscape:grid
       type="xygrid"
       id="grid902" />
  </sodipodi:namedview>
  <defs
     id="defs834" />
  <g
     inkscape:label="Layer 1"
     inkscape:groupmode="layer"
     id="layer1">
    <path
       id="circle4"
       style="fill:#008080;stroke-width:0.169252"
       class="st0"
       d="M 12 0 A 12 12 0 0 0 0 12 A 12 12 0 0 0 12 24 A 12 12 0 0 0 24 12 A 12 12 0 0 0 12 0 z M 9.3261719 5.8398438 L 9.359375 5.8398438 L 16.890625 5.8398438 L 16.908203 5.8398438 C 17.02668 5.8567687 17.162775 5.8730469 17.28125 5.8730469 C 17.568979 5.9068979 17.855502 5.9244868 18.160156 5.9921875 C 19.124896 6.1783652 19.497377 6.7195076 19.328125 7.7011719 C 19.277345 8.124303 18.939402 8.479174 18.482422 8.546875 C 18.279319 8.580725 18.075497 8.5976563 17.855469 8.5976562 C 15.232056 8.6145813 12.592164 8.6328125 9.96875 8.6328125 C 9.5963946 8.6328125 9.2082929 8.6666745 8.8359375 8.734375 C 7.6680955 8.9205527 7.2773327 9.3425766 7.1757812 10.527344 C 7.1757812 10.628895 7.1601562 10.729827 7.1601562 10.814453 L 7.4472656 10.814453 L 18.246094 10.814453 C 18.466122 10.814453 18.684917 10.882823 18.871094 10.984375 C 19.446553 11.356731 19.397131 11.91606 19.363281 12.322266 C 19.363281 12.373046 19.345703 12.439459 19.345703 12.490234 C 19.311853 12.964141 19.024683 13.287121 18.5 13.388672 C 18.313822 13.422522 18.143862 13.421875 17.974609 13.421875 L 7.2265625 13.421875 L 7.1601562 13.421875 L 7.1601562 13.472656 L 7.1601562 13.490234 C 7.1770812 13.845664 7.210296 14.182979 7.2949219 14.521484 C 7.4303239 15.046167 7.751361 15.367204 8.2929688 15.519531 C 9.0207544 15.722634 9.765044 15.757812 10.408203 15.757812 C 12.405382 15.774743 14.437715 15.773438 16.417969 15.773438 L 18.109375 15.773438 C 18.363254 15.773438 18.888705 15.774793 19.193359 16.265625 C 19.396462 16.587205 19.447907 16.959023 19.363281 17.314453 C 19.278651 17.669884 19.057908 17.974631 18.736328 18.177734 C 18.651698 18.228514 18.550771 18.27865 18.449219 18.3125 C 17.822985 18.515603 17.178327 18.54948 16.636719 18.566406 C 15.435026 18.566406 14.216665 18.583984 12.998047 18.583984 C 11.779429 18.583984 10.578646 18.567701 9.3769531 18.550781 C 8.615317 18.533855 7.8540858 18.448549 7.109375 18.279297 C 5.2645232 17.890016 4.3163732 16.908005 4.0117188 15.080078 C 3.9609431 14.792349 3.9270816 14.505179 3.9101562 14.234375 C 3.893231 14.115898 3.8763002 13.99673 3.859375 13.861328 L 3.859375 13.828125 L 3.859375 10.646484 L 3.8925781 10.341797 C 3.9095038 10.121769 3.9440122 9.9179468 3.9609375 9.7148438 C 4.1978909 7.6330386 5.1786078 6.5663567 7.2265625 6.109375 C 7.7681704 5.9908983 8.2936767 5.9414008 8.8183594 5.890625 L 9.3261719 5.8398438 z " />
  </g>
</svg>
