<?xml version="1.0" encoding="UTF-8"?>
<svg data-name="Calque 1" version="1.1" viewBox="0 0 24.6 25" xmlns="http://www.w3.org/2000/svg">
 <title>fetch-fet-logo</title>
 <path d="m0 0v25h24.6v-25h-24.6zm2.625 2.9473h2.4004v2.4004h-2.4004v-2.4004zm5.8496 0h2.4004v2.4004h-2.4004v-2.4004zm5.9004 0h2.4004v2.4004h-2.4004v-2.4004zm6.5996.70117h1v1h-1v-1zm-18.35 5.1484h2.4004v2.4004h-2.4004v-2.4004zm5.8496 0h2.4004v2.4004h-2.4004v-2.4004zm6.5996.70117h1v1h-1v-1zm5.9004 0h1v1h-1v-1zm-18.35 5.3496h2.4004v2.4004h-2.4004v-2.4004zm6.5508.69922h1v1h-1v-1zm5.8984 0h1v1h-1v-1zm5.9004 0h1v1h-1v-1zm-11.799 5.5h1v1h-1v-1zm5.8984 0h1v1h-1v-1zm5.9004 0h1v1h-1v-1zm-17.699.005859h.90039v1h-.90039v-1z" fill="#008080"/>
</svg>
