<?xml version="1.0" encoding="UTF-8" standalone="no"?>
<svg
   id="Calque_1"
   data-name="Calque 1"
   viewBox="0 0 24.6 25"
   version="1.1"
   sodipodi:docname="fet.svg"
   inkscape:version="1.1 (c68e22c387, 2021-05-23)"
   xmlns:inkscape="http://www.inkscape.org/namespaces/inkscape"
   xmlns:sodipodi="http://sodipodi.sourceforge.net/DTD/sodipodi-0.dtd"
   xmlns="http://www.w3.org/2000/svg"
   xmlns:svg="http://www.w3.org/2000/svg">
  <defs
     id="defs9" />
  <sodipodi:namedview
     id="namedview7"
     pagecolor="#ffffff"
     bordercolor="#666666"
     borderopacity="1.0"
     inkscape:pageshadow="2"
     inkscape:pageopacity="0.0"
     inkscape:pagecheckerboard="0"
     showgrid="false"
     inkscape:zoom="30.12"
     inkscape:cx="12.300797"
     inkscape:cy="12.5"
     inkscape:window-width="1708"
     inkscape:window-height="1175"
     inkscape:window-x="741"
     inkscape:window-y="135"
     inkscape:window-maximized="0"
     inkscape:current-layer="Calque_1" />
  <title
     id="title2">fetch-fet-logo</title>
  <path
     id="path4"
     style="fill:#008080"
     d="M 0 0 L 0 25 L 24.599609 25 L 24.599609 0 L 0 0 z M 2.625 2.9472656 L 5.0253906 2.9472656 L 5.0253906 5.3476562 L 2.625 5.3476562 L 2.625 2.9472656 z M 8.4746094 2.9472656 L 10.875 2.9472656 L 10.875 5.3476562 L 8.4746094 5.3476562 L 8.4746094 2.9472656 z M 14.375 2.9472656 L 16.775391 2.9472656 L 16.775391 5.3476562 L 14.375 5.3476562 L 14.375 2.9472656 z M 20.974609 3.6484375 L 21.974609 3.6484375 L 21.974609 4.6484375 L 20.974609 4.6484375 L 20.974609 3.6484375 z M 2.625 8.796875 L 5.0253906 8.796875 L 5.0253906 11.197266 L 2.625 11.197266 L 2.625 8.796875 z M 8.4746094 8.796875 L 10.875 8.796875 L 10.875 11.197266 L 8.4746094 11.197266 L 8.4746094 8.796875 z M 15.074219 9.4980469 L 16.074219 9.4980469 L 16.074219 10.498047 L 15.074219 10.498047 L 15.074219 9.4980469 z M 20.974609 9.4980469 L 21.974609 9.4980469 L 21.974609 10.498047 L 20.974609 10.498047 L 20.974609 9.4980469 z M 2.625 14.847656 L 5.0253906 14.847656 L 5.0253906 17.248047 L 2.625 17.248047 L 2.625 14.847656 z M 9.1757812 15.546875 L 10.175781 15.546875 L 10.175781 16.546875 L 9.1757812 16.546875 L 9.1757812 15.546875 z M 15.074219 15.546875 L 16.074219 15.546875 L 16.074219 16.546875 L 15.074219 16.546875 L 15.074219 15.546875 z M 20.974609 15.546875 L 21.974609 15.546875 L 21.974609 16.546875 L 20.974609 16.546875 L 20.974609 15.546875 z M 9.1757812 21.046875 L 10.175781 21.046875 L 10.175781 22.046875 L 9.1757812 22.046875 L 9.1757812 21.046875 z M 15.074219 21.046875 L 16.074219 21.046875 L 16.074219 22.046875 L 15.074219 22.046875 L 15.074219 21.046875 z M 20.974609 21.046875 L 21.974609 21.046875 L 21.974609 22.046875 L 20.974609 22.046875 L 20.974609 21.046875 z M 3.2753906 21.052734 L 4.1757812 21.052734 L 4.1757812 22.052734 L 3.2753906 22.052734 L 3.2753906 21.052734 z " />
</svg>
