<?xml version="1.0" encoding="UTF-8"?>
<svg id="a" width="24px" height="24px" version="1.1" viewBox="0 0 24 24" xmlns="http://www.w3.org/2000/svg">
 <path class="st0" d="m12 0a12 12 0 00-12 12 12 12 0 0012 12 12 12 0 0012-12 12 12 0 00-12-12zm-.8125 4.791c2.65 0 4.8008 2.1488 4.8008 4.7988 0 2.65-2.1508 4.8008-4.8008 4.8008s-4.8008-2.1508-4.8008-4.8008c0-2.65 2.1508-4.7988 4.8008-4.7988zm5.625 0c.425 0 .80078.34883.80078.79883 0 .45-.35078.80078-.80078.80078s-.80078-.35078-.80078-.80078c0-.45.35078-.79883.80078-.79883zm-1.6133 9.6055c.20625 0 .4125.081641.5625.24414.325.325.325.825 0 1.125l-3.1992 3.1992c-.325.325-.825.325-1.125 0-.325-.325-.325-.825 0-1.125l3.1992-3.1992c.15-.1625.35625-.24414.5625-.24414z" fill="#008080" stroke-width=".25"/>
</svg>
