<?xml version="1.0" encoding="UTF-8"?>
<svg id="a" width="24px" height="24px" version="1.1" viewBox="0 0 24 24" xmlns="http://www.w3.org/2000/svg">
 <path class="cls-2" d="m22.598 5.4539c-.36044-.28474-.79167-.67368-1.5764-.77087-.73659-.097172-1.4862.39586-1.9932.72228-.50676.32637-1.4654 1.2848-1.8612 1.5765-.39603.29169-1.4098.56247-3.0418 1.5417-1.632.97921-8.035 5.0905-8.035 5.0905l1.6667.0209-7.4309 3.8265h.74331l-1.0697.81243s.94455.24999 1.7362-.24999v.2292s8.8476-3.4863 10.556-2.5834l-1.0417.30558c.08982 0 1.7709.11107 1.7709.11107a2.3848 2.3848 0 001.0695 1.7223c1.014.6667 1.0348 1.0348 1.0348 1.0348s-.52823.21525-.52823.48609c0 0 .77783-.23609 1.5001-.21525a5.7391 5.7391 0 011.3542.21525s-.05084-.29168-.75692-.48609c-.70128-.19446-1.396-.95837-1.7362-1.3751a1.9445 1.9445 0 01-.2853-1.9029c.24293-.63197 1.0903-.9792 2.8404-1.882 2.0626-1.0695 2.5348-1.8612 2.8265-2.4793.29152-.6181.72235-1.8473.96534-2.4237.30564-.74305.68026-1.1389.99313-1.3751.31298-.23609 1.7014-.75697 1.7014-.75697s-1.0626-.92365-1.4028-1.1945z" fill="#008080" stroke-width=".069447"/>
</svg>
