<?xml version="1.0" encoding="UTF-8"?>
<svg id="a" width="24px" height="24px" version="1.1" viewBox="0 0 24 24" xmlns="http://www.w3.org/2000/svg">
 <path class="st0" d="m18.137 7.9193c-.4361-.2492-.99681-.2492-1.4952 0l-3.4888 2.0559-2.3674 1.3083-3.4265 2.0559c-.4361.2492-.99681.2492-1.4952 0l-2.6789-1.6198c-.4361-.2492-.74761-.74761-.74761-1.3083v-3.115c0-.4984.2492-.99681.74761-1.3083l2.6789-1.5575c.4361-.2492.99681-.2492 1.4952 0l2.6789 1.6198c.4361.2492.74761.74761.74761 1.3083v2.0559l2.3674-1.3706v-2.1182c0-.4984-.2492-.99681-.74761-1.3083l-4.984-2.9281c-.4361-.2492-.99681-.2492-1.4952 0l-5.1086 2.9904c-.4984.2492-.74761.74761-.74761 1.246v5.8562c0 .4984.2492.99681.74761 1.3083l5.0463 2.9281c.4361.2492.99681.2492 1.4952 0l3.4265-1.9936 2.3674-1.3706 3.4265-1.9936c.4361-.2492.99681-.2492 1.4952 0l2.6789 1.5575c.4361.2492.7476.74761.7476 1.3083v3.115c0 .4984-.2492.99681-.7476 1.3083l-2.6166 1.5575c-.4361.2492-.99681.2492-1.4952 0l-2.6789-1.5575c-.4361-.2492-.74761-.74761-.74761-1.3083v-1.9936l-2.3674 1.3706v2.0559c0 .4984.2492.99681.74761 1.3083l5.0463 2.9281c.4361.2492.99681.2492 1.4952 0l5.0463-2.9281c.4361-.2492.74761-.74761.74761-1.3083v-5.9185c0-.4984-.2492-.99681-.74761-1.3083z" fill="#008080" stroke-width=".623"/>
</svg>
