<?xml version="1.0" encoding="UTF-8"?>
<svg id="a" width="24px" height="24px" version="1.1" viewBox="0 0 24 24" xmlns="http://www.w3.org/2000/svg">
 <path d="m12 0a12 12 0 00-12 12 12 12 0 0012 12 12 12 0 0012-12 12 12 0 00-12-12zm.12305 4.5c1.9497.019831 3.6576.74867 5.125 2.1465.01725.0165.013641.085969-.005859.10547a89.61 89.61 0 01-1.1406 1.1406c-.02175.021-.099046.017844-.12305-.0039062-1.7302-1.5855-3.7355-2.0546-5.9277-1.2559-2.217.80775-3.4851 2.479-3.7363 4.834-.3375 3.1868 2.0688 5.996 5.2773 6.2383 2.9085.219 5.5431-1.8389 6.0254-4.7129.0045-.0285-.058797-.09961-.091797-.09961-1.7962-.0053-3.5932-.005019-5.3887-.011719-.0465 0-.13327-.085562-.13477-.13281a40.108 40.108 0 010-1.5059c.00075-.045.08075-.1262.125-.12695 1.197-.0068 5.8693.002879 7.0078-.013672l.001953.001954c.12375-.0015.20245.013593.25195.058593.0525.048.072734.12775.083984.25.3495 4.0342-2.701 7.6804-6.748 8.0547-4.173.38625-7.7954-2.6255-8.1914-6.8105-.3855-4.0642 2.667-7.7506 6.7402-8.1211.28838-.02625.57108-.037989.84961-.035156z" fill="#008080" fill-rule="evenodd" stroke-width=".75"/>
</svg>
