<?xml version="1.0" encoding="UTF-8"?>
<svg id="a" width="24px" height="24px" version="1.1" viewBox="0 0 24 24" xmlns="http://www.w3.org/2000/svg">
 <path d="m12 0a12 12 0 00-12 12 12 12 0 0012 12 12 12 0 0012-12 12 12 0 00-12-12zm0 3.375.15039.074219.375.22656.29883.22461-4.6484 2.6992-.15039-.29883-1.2754.67383-.22461-.22461-2.1758 1.1992v-.14844l7.6504-4.4258zm1.1992.67578.15039.14844.375.15039.375.22461-4.7246 2.7012-.15039-.30078-2.4746 1.4258-.22461-.30078-2.1758 1.2754v-.22461l8.8496-5.0996zm1.2012.75.15039.074219.375.15039.375.22461-4.7266 2.6992-.14844-.29883-3.6758 2.1738-.22461-.29883-2.1758 1.1992v-.15039l10.051-5.7734zm1.1992.67383.15039.076172.375.22461.375.15039-4.7246 2.6992-.15039-.22461-4.875 2.7754-.22461-.30078-2.1758 1.2754v-.22461l11.25-6.4512zm1.2012.67578.14844.074219.375.22461.375.22656-4.7246 2.625-.15039-.22656-6.0742 3.4512-.22461-.22461-2.1758 1.1992v-.15039l12.451-7.1992zm1.1992.67383.22461.15039.30078.15039.375.22461-4.7246 2.7012-.15039-.30078-7.2754 4.1992-.22461-.29883-2.1758 1.2754v-.22656l13.65-7.875zm1.1992.67578.15039.15039.30078.15039v.52344l-5.4746 3.0762-.15039-.30078-7.2754 4.2754-.22461-.30078-2.1758 1.2012v-.15039l14.85-8.625zm.45117 1.1992v.97656l-5.4746 3.1484-.15039-.29883-7.3496 4.1992-.15039-.29883-1.2012.75-.22461-.15039 14.551-8.3262zm0 1.3516v.97461l-5.4746 3.2246-.15039-.30078-6.0762 3.4512-.22461-.30078-1.1992.75-.22461-.074218 13.35-7.7246zm0 1.4238v.97461l-5.4746 3.1504-.15039-.29883-4.875 2.8496-.15039-.30078-1.2754.67578-.22461-.076172 12.15-6.9746zm0 1.3496v1.0508l-5.4746 3.1504-.15039-.30078-3.6758 2.0996-.15039-.29883-1.2734.67383-.22656-.074219 10.951-6.3008zm0 1.4258v.97461l-5.4746 3.1504-.15039-.30078-2.4746 1.4258-.15039-.30078-1.2754.75-.22461-.14844 9.75-5.5508zm0 1.3496v1.0508l-5.4746 3.1504-.15039-.30078-1.2754.67578-.22461-.30078-1.2012.75-.14844-.074219 8.4746-4.9512z" fill="#008080" stroke-width=".75"/>
</svg>
