<?xml version="1.0" encoding="UTF-8" standalone="no"?>
<!-- Created with Inkscape (http://www.inkscape.org/) -->

<svg
   width="24.0px"
   height="24.0px"
   viewBox="0 0 24.0 24.0"
   version="1.1"
   id="SVGRoot"
   sodipodi:docname="ren.svg"
   inkscape:version="1.1 (c68e22c387, 2021-05-23)"
   xmlns:inkscape="http://www.inkscape.org/namespaces/inkscape"
   xmlns:sodipodi="http://sodipodi.sourceforge.net/DTD/sodipodi-0.dtd"
   xmlns="http://www.w3.org/2000/svg"
   xmlns:svg="http://www.w3.org/2000/svg">
  <sodipodi:namedview
     id="namedview839"
     pagecolor="#ffffff"
     bordercolor="#666666"
     borderopacity="1.0"
     inkscape:pageshadow="2"
     inkscape:pageopacity="0.0"
     inkscape:pagecheckerboard="0"
     inkscape:document-units="px"
     showgrid="true"
     inkscape:zoom="37.291667"
     inkscape:cx="12"
     inkscape:cy="12"
     inkscape:window-width="2148"
     inkscape:window-height="1203"
     inkscape:window-x="765"
     inkscape:window-y="81"
     inkscape:window-maximized="0"
     inkscape:current-layer="layer1">
    <inkscape:grid
       type="xygrid"
       id="grid902" />
  </sodipodi:namedview>
  <defs
     id="defs834" />
  <g
     inkscape:label="Layer 1"
     inkscape:groupmode="layer"
     id="layer1">
    <path
       id="circle13"
       style="fill:#008080;stroke-width:0.75"
       d="M 12 0 A 12 12 0 0 0 0 12 A 12 12 0 0 0 12 24 A 12 12 0 0 0 24 12 A 12 12 0 0 0 12 0 z M 12 3.375 L 12.150391 3.4492188 L 12.525391 3.6757812 L 12.824219 3.9003906 L 8.1757812 6.5996094 L 8.0253906 6.3007812 L 6.75 6.9746094 L 6.5253906 6.75 L 4.3496094 7.9492188 L 4.3496094 7.8007812 L 12 3.375 z M 13.199219 4.0507812 L 13.349609 4.1992188 L 13.724609 4.3496094 L 14.099609 4.5742188 L 9.375 7.2753906 L 9.2246094 6.9746094 L 6.75 8.4003906 L 6.5253906 8.0996094 L 4.3496094 9.375 L 4.3496094 9.1503906 L 13.199219 4.0507812 z M 14.400391 4.8007812 L 14.550781 4.875 L 14.925781 5.0253906 L 15.300781 5.25 L 10.574219 7.9492188 L 10.425781 7.6503906 L 6.75 9.8242188 L 6.5253906 9.5253906 L 4.3496094 10.724609 L 4.3496094 10.574219 L 14.400391 4.8007812 z M 15.599609 5.4746094 L 15.75 5.5507812 L 16.125 5.7753906 L 16.5 5.9257812 L 11.775391 8.625 L 11.625 8.4003906 L 6.75 11.175781 L 6.5253906 10.875 L 4.3496094 12.150391 L 4.3496094 11.925781 L 15.599609 5.4746094 z M 16.800781 6.1503906 L 16.949219 6.2246094 L 17.324219 6.4492188 L 17.699219 6.6757812 L 12.974609 9.3007812 L 12.824219 9.0742188 L 6.75 12.525391 L 6.5253906 12.300781 L 4.3496094 13.5 L 4.3496094 13.349609 L 16.800781 6.1503906 z M 18 6.8242188 L 18.224609 6.9746094 L 18.525391 7.125 L 18.900391 7.3496094 L 14.175781 10.050781 L 14.025391 9.75 L 6.75 13.949219 L 6.5253906 13.650391 L 4.3496094 14.925781 L 4.3496094 14.699219 L 18 6.8242188 z M 19.199219 7.5 L 19.349609 7.6503906 L 19.650391 7.8007812 L 19.650391 8.3242188 L 14.175781 11.400391 L 14.025391 11.099609 L 6.75 15.375 L 6.5253906 15.074219 L 4.3496094 16.275391 L 4.3496094 16.125 L 19.199219 7.5 z M 19.650391 8.6992188 L 19.650391 9.6757812 L 14.175781 12.824219 L 14.025391 12.525391 L 6.6757812 16.724609 L 6.5253906 16.425781 L 5.3242188 17.175781 L 5.0996094 17.025391 L 19.650391 8.6992188 z M 19.650391 10.050781 L 19.650391 11.025391 L 14.175781 14.25 L 14.025391 13.949219 L 7.9492188 17.400391 L 7.7246094 17.099609 L 6.5253906 17.849609 L 6.3007812 17.775391 L 19.650391 10.050781 z M 19.650391 11.474609 L 19.650391 12.449219 L 14.175781 15.599609 L 14.025391 15.300781 L 9.1503906 18.150391 L 9 17.849609 L 7.7246094 18.525391 L 7.5 18.449219 L 19.650391 11.474609 z M 19.650391 12.824219 L 19.650391 13.875 L 14.175781 17.025391 L 14.025391 16.724609 L 10.349609 18.824219 L 10.199219 18.525391 L 8.9257812 19.199219 L 8.6992188 19.125 L 19.650391 12.824219 z M 19.650391 14.25 L 19.650391 15.224609 L 14.175781 18.375 L 14.025391 18.074219 L 11.550781 19.5 L 11.400391 19.199219 L 10.125 19.949219 L 9.9003906 19.800781 L 19.650391 14.25 z M 19.650391 15.599609 L 19.650391 16.650391 L 14.175781 19.800781 L 14.025391 19.5 L 12.75 20.175781 L 12.525391 19.875 L 11.324219 20.625 L 11.175781 20.550781 L 19.650391 15.599609 z " />
  </g>
</svg>
