<?xml version="1.0" encoding="UTF-8"?>
<svg id="a" width="24px" height="24px" version="1.1" viewBox="0 0 24 24" xmlns="http://www.w3.org/2000/svg">
 <path d="m12 0 .20924.10326.52174.31522.41576.3125-6.4674 3.7554-.20924-.41576-1.7745.9375-.3125-.3125-3.0272 1.6685v-.20652zm1.6685.94022.20924.20652.52174.20924.52174.3125-6.5734 3.7582-.20924-.41848-3.4429 1.9837-.3125-.41848-3.0272 1.7745v-.3125zm1.6712 1.0435.20924.10326.52174.20924.52174.3125-6.5761 3.7554-.20652-.41576-5.1141 3.0245-.3125-.41576-3.0272 1.6685v-.20924zm1.6685.9375.20924.10598.52174.3125.52174.20924-6.5734 3.7554-.20924-.3125-6.7826 3.8614-.3125-.41848-3.0272 1.7745v-.3125zm1.6712.94022.20652.10326.52174.3125.52174.31522-6.5734 3.6522-.20924-.31522-8.4511 4.8016-.3125-.3125-3.0272 1.6685v-.20924zm1.6685.9375.3125.20924.41848.20924.52174.3125-6.5734 3.7582-.20924-.41848-10.122 5.8424-.3125-.41576-3.0272 1.7745v-.31522zm1.6685.94022.20924.20924.41848.20924v.72826l-7.6168 4.2799-.20924-.41848-10.122 5.9484-.3125-.41848-3.0272 1.6712v-.20924zm.62772 1.6685v1.3587l-7.6168 4.3804-.20924-.41576-10.226 5.8424-.20924-.41576-1.6712 1.0435-.3125-.20924zm0 1.8804v1.356l-7.6168 4.4864-.20924-.41848-8.4538 4.8016-.3125-.41848-1.6685 1.0435-.3125-.10326zm0 1.981v1.356l-7.6168 4.3832-.20924-.41576-6.7826 3.9647-.20924-.41848-1.7745.94022-.3125-.10598zm0 1.8777v1.462l-7.6168 4.3832-.20924-.41848-5.1141 2.9212-.20924-.41576-1.7717.9375-.31522-.10326zm0 1.9837v1.356l-7.6168 4.3832-.20924-.41848-3.4429 1.9837-.20924-.41848-1.7745 1.0435-.3125-.20652zm0 1.8777v1.462l-7.6168 4.3832-.20924-.41848-1.7745.94022-.3125-.41848-1.6712 1.0435-.20652-.10326z" fill="#008080" stroke-width="1.0435"/>
</svg>
