<?xml version="1.0" encoding="UTF-8" standalone="no"?>
<!-- Created with Inkscape (http://www.inkscape.org/) -->

<svg
   width="24.0px"
   height="24.0px"
   viewBox="0 0 24.0 24.0"
   version="1.1"
   id="SVGRoot"
   sodipodi:docname="ren2.svg"
   inkscape:version="1.1 (c68e22c387, 2021-05-23)"
   xmlns:inkscape="http://www.inkscape.org/namespaces/inkscape"
   xmlns:sodipodi="http://sodipodi.sourceforge.net/DTD/sodipodi-0.dtd"
   xmlns="http://www.w3.org/2000/svg"
   xmlns:svg="http://www.w3.org/2000/svg">
  <sodipodi:namedview
     id="namedview839"
     pagecolor="#ffffff"
     bordercolor="#666666"
     borderopacity="1.0"
     inkscape:pageshadow="2"
     inkscape:pageopacity="0.0"
     inkscape:pagecheckerboard="0"
     inkscape:document-units="px"
     showgrid="true"
     inkscape:zoom="37.291667"
     inkscape:cx="12"
     inkscape:cy="12"
     inkscape:window-width="2148"
     inkscape:window-height="1203"
     inkscape:window-x="765"
     inkscape:window-y="81"
     inkscape:window-maximized="0"
     inkscape:current-layer="layer1">
    <inkscape:grid
       type="xygrid"
       id="grid902" />
  </sodipodi:namedview>
  <defs
     id="defs834" />
  <g
     inkscape:label="Layer 1"
     inkscape:groupmode="layer"
     id="layer1">
    <path
       id="path1065"
       style="fill:#008080;stroke-width:1.04348"
       d="m 12,0 0.20924,0.1032612 0.521739,0.3152173 0.415761,0.3125 L 6.6793477,4.4864131 6.4701086,4.0706521 4.6956521,5.0081522 4.383152,4.6956522 1.3559782,6.3641305 V 6.1576086 Z m 1.668479,0.9402173 0.209238,0.2065219 0.521739,0.2092391 0.521739,0.3125 L 8.3478258,5.4266304 8.1385868,5.0081522 4.6956521,6.991848 4.383152,6.5733696 1.3559782,8.347826 v -0.3125 z m 1.671196,1.0434783 0.209238,0.1032612 0.521739,0.2092391 0.521739,0.3124998 L 10.016305,6.3641305 9.8097818,5.9483695 4.6956521,8.972826 4.383152,8.557065 1.3559782,10.225543 v -0.209238 z m 1.668477,0.9375001 0.209239,0.1059781 0.52174,0.3125001 0.521739,0.2092391 -6.573369,3.755435 -0.20924,-0.3125 L 4.6956521,10.853261 4.383152,10.434783 1.3559782,12.20924 V 11.896739 Z M 18.679348,3.861413 18.88587,3.9646742 19.407609,4.2771743 19.929348,4.5923915 13.355978,8.244565 13.14674,7.929348 4.6956521,12.730979 4.383152,12.418478 1.3559782,14.086957 v -0.20924 z m 1.668478,0.9375001 0.3125,0.2092391 0.418479,0.2092391 0.521739,0.3125 L 15.027174,9.288043 14.817935,8.869565 4.6956521,14.711957 4.383152,14.296196 1.3559782,16.070652 v -0.315217 z m 1.668479,0.9402173 0.209238,0.2092391 0.418479,0.2092391 V 6.88587 L 15.027174,11.165761 14.817935,10.747282 4.6956521,16.695652 4.383152,16.277174 1.3559782,17.94837 v -0.20924 z m 0.627717,1.6684786 v 1.358695 l -7.616848,4.380435 -0.209239,-0.41576 -10.2255439,5.84239 -0.2092391,-0.415761 -1.6711955,1.043479 -0.3125,-0.209239 z m 0,1.880434 v 1.355979 l -7.616848,4.486413 -0.209239,-0.418478 -8.4538046,4.80163 -0.3125,-0.418479 -1.6684784,1.043478 -0.3125,-0.103262 z m 0,1.980978 V 12.625 l -7.616848,4.383152 -0.209239,-0.415761 -6.7826092,3.964675 -0.209239,-0.41848 -1.7744564,0.940219 -0.3125001,-0.105979 z m 0,1.877718 v 1.461957 l -7.616848,4.383152 -0.209239,-0.418479 -5.1141312,2.921197 -0.209238,-0.415761 -1.77174,0.9375 -0.315217,-0.103262 z m 0,1.983696 v 1.355978 l -7.616848,4.383152 -0.209239,-0.418478 -3.442935,1.983696 -0.209239,-0.418478 -1.7744572,1.043478 -0.3125,-0.206522 z m 0,1.877717 v 1.461957 L 15.027174,22.853261 14.817935,22.434783 13.043478,23.375 12.730979,22.956522 11.059783,24 10.853261,23.896737 Z" />
  </g>
</svg>
