<?xml version="1.0" encoding="UTF-8"?>
<svg id="a" width="24px" height="24px" version="1.1" viewBox="0 0 24 24" xmlns="http://www.w3.org/2000/svg">
 <path class="cls-1" d="m3.5165-.010801c-1.4668 0-2.5508 1.1084-2.5508 2.6211v18.926a2.4085 2.4085 0 002.4414 2.4395 2.3983 2.3983 0 002.4395-2.4395v-16.877h12.062l-7.1289 7.1133a2.3932 2.3932 0 000 3.4004l8.1426 8.1172a2.3978 2.3978 0 103.3828-3.3984l-6.4414-6.4219 6.0195-6.002a2.3915 2.3915 0 00.70508-1.6992l.0098-4.8516a.97053.97053 0 00-.26956-.66797l-.0059.005859a.92634.92634 0 00-.66602-.26562z" fill="#008080" stroke-width=".16997"/>
</svg>
