<?xml version="1.0" encoding="UTF-8"?>
<svg id="a" width="24px" height="24px" version="1.1" viewBox="0 0 24 24" xmlns="http://www.w3.org/2000/svg">
 <path d="m15.174 19.41-6.2054-13.884 8.0897 1.1334zm-1.4593-17.362-3.8253 1.4947-.9209 1.7001zm-2.3731-1.1334-.95632 1.0555 3.1736-.0779zm1.6718-.82172-1.5159.7013 3.4569 1.523zm1.7285-.0921h-1.6293l2.5218.97757zm.94215 1.2963-.38961 1.1618.77922.37544zm1.2963 5.157-7.7426-1.0626 6.9776-2.196zm-1.8347-4.0944.42503-1.1547-2.2314-.97048zm.64463-1.268.50295 1.8135 2.9752-.78631zm-4.7532 18.383-6.3046 4.5266 4.0024-18.418zm.12751-.0425 3.8394.04959-6.1204-13.828zm4.2007-.3046 2.9398-10.895-1.1122-1.3601zm-1.4168-17.079-4.8383 3.2586 7.0697-2.2881zm-.60921 0-3.0035.0992-.4392 1.2538z" fill="#008080" stroke-width=".070838"/>
</svg>
