<?xml version="1.0" encoding="UTF-8"?>
<svg id="a" width="24px" height="24px" version="1.1" viewBox="0 0 24 24" xmlns="http://www.w3.org/2000/svg">
 <path d="m12 0a12 12 0 00-12 12 12 12 0 0012 12 12 12 0 0012-12 12 12 0 00-12-12zm2.7891 5.8633c1.905 0 3.2109.93278 3.2109 2.8633 0 1.9313-1.5663 2.8652-3.8516 2.8652-1.6875 0-2.4863-.32617-4.1738-.32617a6.858 6.858 0 00-1.248.10742c.339-3.135 2.9515-5.5098 6.0625-5.5098zm-4.9375 6.5449c1.6868 0 2.4863.32617 4.1738.32617a6.858 6.858 0 001.248-.10742c-.339 3.1358-2.9515 5.5098-6.0625 5.5098-1.905 0-3.2109-.93278-3.2109-2.8633 0-1.9305 1.5663-2.8652 3.8516-2.8652z" fill="#008080" stroke-width=".75"/>
</svg>
