<?xml version="1.0" encoding="UTF-8"?>
<svg id="a" width="24px" height="24px" version="1.1" viewBox="0 0 24 24" xmlns="http://www.w3.org/2000/svg">
 <path class="st2" d="m20.101 9.8428c-.14482-.14482-.34394-.2293-.55514-.2293h-19.152c-.34998 0-.52496.42239-.27757.66978l3.7834 3.7834c.14482.14482.34394.2293.55514.2293h19.152c.34998 0 .52497-.42239.27757-.66978zm-16.202-7.0176c.15085-.14482.34998-.2293.55514-.2293h19.152c.34998 0 .52497.42239.27757.66978l-3.7834 3.7834c-.14482.14482-.34394.2293-.55514.2293h-19.152c-.34998 0-.52496-.42239-.27757-.66978zm0 14.126c.14482-.14482.34394-.2293.55514-.2293h19.152c.34998 0 .52497.42239.27757.66978l-3.7834 3.7834c-.14482.14482-.34394.2293-.55514.2293h-19.152c-.34998 0-.52496-.42239-.27757-.66978z" fill="#008080" stroke-width=".060341"/>
</svg>
